{"title":"Date Night 2010 (HDTV HC 1080p) ENCODED By [HDPT]","uid":14778395,"size":2831078837,"categoryP":"video","categoryS":"movies","magnet":"?xt=urn:btih:0fecf3b988f120062eb61ac6249806da13ac7c91&amp;dn=Date+Night+2010+%28HDTV+HC+1080p%29+ENCODED+By+%5BHDPT%5D&amp;tr=udp%3A%2F%2Ftracker.leechers-paradise.org%3A6969&amp;tr=udp%3A%2F%2Fzer0day.ch%3A1337&amp;tr=udp%3A%2F%2Fopen.demonii.com%3A1337&amp;tr=udp%3A%2F%2Ftracker.coppersurfer.tk%3A6969&amp;tr=udp%3A%2F%2Fexodus.desync.com%3A6969","seeders":0,"leechers":0,"uploader":"[HDPT]","files":1,"time":1464969245,"description":"Format                      : MPEG-4\r\nFormat profile              : Base Media\r\nCodec ID                    : isom (isom/iso2/avc1/mp41)\r\nFile size                   : 2.64 GiB\r\nDuration                    : 1h 20mn\r\nOverall bit rate mode       : Variable\r\nOverall bit rate            : 4 679 Kbps\r\nWriting application         : Lavf54.63.104\r\n\r\nVideo\r\nID                          : 1\r\nFormat                      : AVC\r\nFormat/Info                 : Advanced Video Codec\r\nFormat profile              :   \r\nFormat settings, CABAC      : Yes\r\nFormat settings, ReFrames   : 1 frame\r\nCodec ID                    : avc1\r\nCodec ID/Info               : Advanced Video Coding\r\nDuration                    : 1h 20mn\r\nBit rate                    : 4 496 Kbps\r\nWidth                       : 1 920 pixels\r\nHeight                      : 1 080 pixels\r\nDisplay aspect ratio        : 16:9\r\nFrame rate mode             : Variable\r\nFrame rate                  : 25.000 fps\r\nMinimum frame rate          : 12.500 fps\r\nMaximum frame rate          : 25.000 fps\r\nColor space                 : YUV\r\nChroma subsampling          : 4:2:0\r\nBit depth                   : 8 bits\r\nScan type                   : Progressive\r\nBits/(Pixel*Frame)          : 0.087\r\nStream size                 : 2.54 GiB (96%)\r\nAudio\r\nID                          : 2\r\nFormat                      : AAC\r\nFormat/Info                 : Advanced Audio Codec\r\nFormat profile              : LC\r\nCodec ID                    : 40\r\nDuration                    : 1h 20mn\r\nDuration_FirstFrame         : 64ms\r\nBit rate mode               : Variable\r\nBit rate                    : 165 Kbps\r\nMaximum bit rate            : 192 Kbps\r\nChannel(s)                  : 2 channels\r\nChannel positions           : Front: L R\r\nSampling rate               : 48.0 KHz\r\nFrame rate                  : 46.875 fps (1024 spf)\r\nCompression mode            : Lossy\r\nStream size                 : 95.4 MiB (4%)\r\nDefault                     : Yes\r\nAlternate group             : 1","torrent":{"xt":"urn:btih:0fecf3b988f120062eb61ac6249806da13ac7c91","amp;dn":"Date+Night+2010+%28HDTV+HC+1080p%29+ENCODED+By+%5BHDPT%5D","amp;tr":["udp%3A%2F%2Ftracker.leechers-paradise.org%3A6969","udp%3A%2F%2Fzer0day.ch%3A1337","udp%3A%2F%2Fopen.demonii.com%3A1337","udp%3A%2F%2Ftracker.coppersurfer.tk%3A6969","udp%3A%2F%2Fexodus.desync.com%3A6969"],"infoHash":"0fecf3b988f120062eb61ac6249806da13ac7c91","infoHashBuffer":{"type":"Buffer","data":[15,236,243,185,136,241,32,6,46,182,26,198,36,152,6,218,19,172,124,145]},"announce":[],"urlList":[]}}